<?xml version="1.0" standalone="no"?>
<!DOCTYPE svg PUBLIC "-//W3C//DTD SVG 20010904//EN"
 "http://www.w3.org/TR/2001/REC-SVG-20010904/DTD/svg10.dtd">
<svg version="1.0" xmlns="http://www.w3.org/2000/svg"
 width="735.000000pt" height="465.000000pt" viewBox="0 0 735.000000 465.000000"
 preserveAspectRatio="xMidYMid meet">

<g transform="translate(0.000000,465.000000) scale(0.100000,-0.100000)"
fill="#efe8fa" stroke="none">
<path d="M3552 3875 c-54 -46 -114 -152 -158 -283 -24 -69 -48 -130 -54 -136
-8 -8 -26 7 -65 50 -107 121 -281 234 -359 234 -46 -1 -61 -10 -96 -60 -24
-33 -25 -42 -23 -165 0 -71 8 -170 17 -219 9 -49 16 -95 16 -102 0 -19 -23
-18 -123 6 -89 21 -272 32 -339 20 -147 -27 -110 -191 98 -436 35 -42 64 -82
64 -89 0 -7 -21 -18 -47 -25 -75 -18 -289 -109 -333 -141 -52 -38 -74 -81 -65
-127 20 -108 77 -144 357 -226 31 -9 66 -24 78 -34 l22 -18 -45 -64 c-138
-195 -206 -301 -222 -343 -16 -43 -16 -48 -1 -72 25 -38 73 -58 152 -63 82 -5
231 10 318 33 32 9 61 13 64 10 3 -3 -4 -33 -16 -68 -12 -34 -27 -84 -33 -112
-17 -78 -28 -263 -17 -303 41 -147 234 -93 473 132 39 36 73 66 77 66 4 0 10
-12 13 -27 42 -206 101 -349 172 -421 43 -42 47 -44 93 -40 26 3 60 14 76 25
46 33 95 129 149 291 28 83 53 152 56 152 3 0 60 -51 126 -112 127 -119 208
-175 265 -185 51 -8 107 21 125 65 24 58 34 142 23 202 -18 103 -41 292 -37
297 3 2 60 -10 128 -27 159 -40 334 -52 374 -26 59 39 79 112 50 181 -23 57
-135 214 -203 286 -47 50 -59 69 -50 77 7 5 51 18 98 27 221 44 380 147 380
246 0 62 -44 101 -205 182 -88 44 -118 55 -202 77 -28 7 -43 16 -43 27 0 8 31
48 68 87 122 129 202 260 202 332 0 36 -25 78 -54 92 -13 6 -51 16 -83 23 -57
12 -115 7 -356 -30 -26 -4 -49 -5 -52 -3 -11 11 -4 70 16 142 13 49 22 119 25
200 5 108 3 130 -13 160 -27 52 -63 65 -137 52 -97 -18 -179 -66 -284 -166
-55 -53 -96 -85 -102 -80 -5 5 -16 47 -26 94 -23 117 -58 204 -107 271 -52 71
-81 89 -145 89 -39 0 -57 -6 -80 -25z"/>
</g>
</svg>
